<?xml version="1.0" encoding="UTF-8"?>
<svg version="1.1" xmlns="http://www.w3.org/2000/svg" width="512" height="512" class="fill-white text-white">
<path d="M0 0 C7.66046768 4.07397599 11.06734312 12.98231577 14.68359375 20.3515625 C15.26158218 21.51319916 15.83957062 22.67483582 16.43507385 23.87167358 C17.96709857 26.95091441 19.48947533 30.03482546 21.00976562 33.11987305 C22.54052084 36.22206934 24.08013554 39.31985932 25.61914062 42.41796875 C27.89089694 46.99318615 30.15755331 51.57089053 32.41967773 56.15087891 C32.94126968 57.18213898 33.46286163 58.21339905 34.0002594 59.27590942 C35.5 62.375 35.5 62.375 36.77403259 65.58126831 C40.54045111 74.55983401 45.76409057 77.7182828 54.38671875 81.6796875 C55.6537575 82.29508345 56.91917984 82.91381727 58.18305969 83.53567505 C61.49299839 85.15375193 64.82197882 86.72783218 68.15740967 88.2925415 C71.51998002 89.87844214 74.86395512 91.502511 78.20898438 93.125 C81.98814022 94.95682018 85.76831249 96.78545146 89.56462097 98.58151245 C112.23884195 109.34060277 112.23884195 109.34060277 116.5 117.375 C118.39492617 123.18844632 118.13799258 129.3602866 116.3125 135.125 C112.75370109 141.50629459 109.45368331 144.85207499 102.84375 147.96875 C102.16461548 148.29500366 101.48548096 148.62125732 100.7857666 148.95739746 C98.36510534 150.11420985 95.93380817 151.24611383 93.5 152.375 C85.82066293 155.94937768 78.1550186 159.54889244 70.515625 163.20800781 C68.1656628 164.32228155 65.8074208 165.41925335 63.44140625 166.49902344 C46.52096014 173.59055565 46.52096014 173.59055565 35.92692566 187.58883667 C35.41290607 189.02684956 34.91163481 190.46946315 34.42108154 191.91564941 C32.51059665 197.01677449 29.8856588 201.81114771 27.42578125 206.6640625 C26.33322829 208.8622595 25.24275453 211.06149105 24.15429688 213.26171875 C23.60507568 214.36821777 23.05585449 215.4747168 22.48999023 216.61474609 C21.36348091 218.88809471 20.23982186 221.16285776 19.11889648 223.43896484 C17.478743 226.76779847 15.82829449 230.09135081 14.17578125 233.4140625 C13.67983963 234.42659088 13.18389801 235.43911926 12.67292786 236.48233032 C9.07538075 243.67971603 5.54691162 250.22963521 -2.0546875 253.68359375 C-8.26797074 255.4403847 -14.91611041 255.25167683 -21 253.1875 C-26.77366084 249.00159589 -29.8832858 244.36873302 -33.0234375 238.12890625 C-33.44628021 237.30701309 -33.86912292 236.48511993 -34.30477905 235.63832092 C-35.71424889 232.88937221 -37.10798204 230.13282343 -38.5 227.375 C-39.51851152 225.36960698 -40.53706734 223.36423646 -41.55566406 221.35888672 C-44.22242852 216.09505791 -46.86954362 210.8216186 -49.50830078 205.54370117 C-51.15354095 202.25545688 -52.80521489 198.9704917 -54.45703125 195.68554688 C-55.50559741 193.5913406 -56.5537893 191.49694687 -57.6015625 189.40234375 C-58.09516266 188.42232895 -58.58876282 187.44231415 -59.09732056 186.43260193 C-59.54554169 185.53308304 -59.99376282 184.63356415 -60.45556641 183.70678711 C-60.85176178 182.91582138 -61.24795715 182.12485565 -61.65615845 181.30992126 C-62.5 179.375 -62.5 179.375 -62.5 177.375 C-63.33885742 177.11630127 -64.17771484 176.85760254 -65.04199219 176.59106445 C-68.77477009 175.27837265 -72.28312114 173.65899336 -75.828125 171.91796875 C-76.52676666 171.57846695 -77.22540833 171.23896515 -77.94522095 170.88917542 C-80.21551495 169.7843993 -82.48295775 168.673932 -84.75 167.5625 C-86.31914577 166.79519135 -87.88831918 166.02793922 -89.45751953 165.26074219 C-92.62372407 163.71151515 -95.78837456 162.15916458 -98.95214844 160.60498047 C-102.4766304 158.87453513 -106.00682823 157.15631588 -109.54040527 155.4445343 C-112.48944775 154.01321887 -115.43179098 152.56826344 -118.375 151.125 C-119.4362207 150.61348389 -120.49744141 150.10196777 -121.59082031 149.57495117 C-129.59552793 145.61677491 -135.78148708 141.1712823 -139.25 132.5 C-140.18026643 124.59273537 -139.21106714 118.73967616 -135.0078125 111.97265625 C-131.40378159 108.23950896 -127.23750021 106.29957784 -122.625 104 C-121.62919922 103.49251221 -120.63339844 102.98502441 -119.60742188 102.4621582 C-116.24455378 100.75372866 -112.87261769 99.06409383 -109.5 97.375 C-107.5965283 96.41492051 -105.69388356 95.45321429 -103.79122925 94.49151611 C-100.52968884 92.84412539 -97.26525711 91.20250947 -94 89.5625 C-93.38690979 89.2544342 -92.77381958 88.94636841 -92.14215088 88.62896729 C-85.20507507 85.14915469 -78.23728758 81.73827799 -71.21875 78.42578125 C-70.25479309 77.96657539 -70.25479309 77.96657539 -69.2713623 77.49809265 C-64.7347943 75.375 -64.7347943 75.375 -62.5 75.375 C-62.23173904 74.51479752 -61.96347809 73.65459503 -61.68708801 72.76832581 C-60.50397679 69.38636778 -59.09557398 66.29157902 -57.5065918 63.08178711 C-57.06465988 62.185438 -57.06465988 62.185438 -56.61380005 61.27098083 C-55.64657725 59.31260272 -54.67337529 57.35728112 -53.69921875 55.40234375 C-53.01897039 54.03287047 -52.33878029 52.66336825 -51.65864563 51.2938385 C-50.23511214 48.43032625 -48.80810473 45.56857427 -47.37915039 42.70776367 C-45.55396153 39.05199621 -43.74179522 35.38993788 -41.93272686 31.72617245 C-40.53339369 28.89769076 -39.12502154 26.07378146 -37.71415138 23.25103951 C-37.04230181 21.90314979 -36.37373068 20.55362053 -35.70859337 19.20240593 C-34.77572204 17.30964895 -33.83026586 15.42369358 -32.8815918 13.53881836 C-32.08122749 11.93048378 -32.08122749 11.93048378 -31.26469421 10.28965759 C-24.57954112 -0.75187701 -12.20136028 -5.62242415 0 0 Z M-11.5 70.375 C-11.95850342 71.3129541 -12.41700684 72.2509082 -12.8894043 73.21728516 C-14.60505661 76.72140653 -16.33156699 80.22008564 -18.0612793 83.71728516 C-18.80607973 85.22690667 -19.54799241 86.73795671 -20.28686523 88.25048828 C-21.35410639 90.43390679 -22.43189041 92.61184687 -23.51171875 94.7890625 C-23.83589279 95.45805573 -24.16006683 96.12704895 -24.49406433 96.8163147 C-28.33141588 104.49464131 -32.71727583 109.01940315 -40.42578125 112.6796875 C-41.17337204 113.04853058 -41.92096283 113.41737366 -42.69120789 113.7973938 C-45.05867775 114.96168265 -47.43515935 116.10602378 -49.8125 117.25 C-51.4283724 118.04036357 -53.04361418 118.83201781 -54.65820312 119.625 C-58.59833322 121.55666863 -62.54666192 123.47051849 -66.5 125.375 C-66.5 126.035 -66.5 126.695 -66.5 127.375 C-65.50145996 127.84808594 -64.50291992 128.32117188 -63.47412109 128.80859375 C-59.74023305 130.58442087 -56.02005066 132.3875035 -52.30322266 134.19873047 C-50.69871065 134.97598151 -49.09066671 135.74598789 -47.47900391 136.50830078 C-30.3908187 144.6027043 -30.3908187 144.6027043 -26.5 152.375 C-25.89494629 153.509375 -25.28989258 154.64375 -24.66650391 155.8125 C-22.57383056 159.79552428 -20.59662474 163.83107989 -18.625 167.875 C-17.93043948 169.28422504 -17.23513266 170.69308251 -16.5390625 172.1015625 C-14.85074358 175.52186598 -13.17259307 178.94698067 -11.5 182.375 C-8.34362029 179.72134288 -6.83547711 176.34514835 -5.1015625 172.6953125 C-4.45073237 171.36057391 -3.79968381 170.02594182 -3.1484375 168.69140625 C-2.1356147 166.59761817 -1.12611596 164.50232909 -0.12109375 162.40478516 C0.85570293 160.37218618 1.84510025 158.34609587 2.8359375 156.3203125 C3.1288266 155.69931671 3.4217157 155.07832092 3.72348022 154.43850708 C6.48160893 148.82664679 10.0507483 144.81964347 15.6171875 141.9453125 C16.38248779 141.54554199 17.14778809 141.14577148 17.9362793 140.73388672 C18.74105713 140.3267041 19.54583496 139.91952148 20.375 139.5 C21.20620361 139.07090332 22.03740723 138.64180664 22.89379883 138.19970703 C30.33472541 134.38789387 37.8807617 130.81447678 45.5 127.375 C45.5 126.715 45.5 126.055 45.5 125.375 C44.87134033 125.07843506 44.24268066 124.78187012 43.5949707 124.47631836 C37.49762525 121.59467709 31.41665023 118.68105063 25.34667969 115.7421875 C23.00381947 114.61697162 20.65144934 113.52070603 18.2890625 112.4375 C17.18304688 111.90125 16.07703125 111.365 14.9375 110.8125 C14.00808594 110.37808594 13.07867187 109.94367188 12.12109375 109.49609375 C3.71633629 102.69462833 -0.38318003 89.71609684 -4.99609375 80.21679688 C-5.54910156 79.09208984 -6.10210937 77.96738281 -6.671875 76.80859375 C-7.1678418 75.78822021 -7.66380859 74.76784668 -8.17480469 73.71655273 C-9.28247609 71.25120294 -9.28247609 71.25120294 -11.5 70.375 Z " fill="#000000" transform="translate(181.5,33.625)"/>
<path d="M0 0 C7.72868251 4.47865846 10.89226951 11.65368284 13.83569336 19.68066406 C22.10645145 41.55705267 29.96170672 55.39240457 51.79998779 65.50286865 C57.73552105 68.11725176 63.70403977 70.69162431 69.80804443 72.88893127 C76.94989974 75.59020129 81.47154403 79.59178613 85.24435425 86.26835632 C87.44558258 91.38039138 86.86547839 98.39381036 85.39038086 103.65722656 C81.56134114 112.01729661 74.23320879 115.31253593 66.21850586 118.83691406 C64.27698702 119.73359689 62.33692642 120.6334426 60.39819336 121.53613281 C57.37755877 122.93616522 54.35438273 124.31756953 51.30151367 125.64599609 C36.6620283 132.05464666 28.9443531 137.91547015 22.99627686 152.93005371 C21.66097167 156.23641381 20.05230508 159.35902772 18.43334961 162.53613281 C16.82986017 165.80725126 15.23398876 169.08162534 13.65014648 172.36230469 C6.50710745 186.88502332 6.50710745 186.88502332 -1.47680664 190.51269531 C-7.69008988 192.26948626 -14.33822955 192.08077839 -20.42211914 190.01660156 C-26.17458409 185.84606447 -29.29111883 181.23327297 -32.42211914 175.01660156 C-32.83574707 174.21230713 -33.249375 173.4080127 -33.67553711 172.5793457 C-35.10244103 169.79324913 -36.5124403 166.99895098 -37.92211914 164.20410156 C-38.49220703 163.08293945 -39.06229492 161.96177734 -39.6496582 160.80664062 C-41.45524586 157.25484043 -43.25297107 153.69919282 -45.04711914 150.14160156 C-45.6278418 148.99344971 -46.20856445 147.84529785 -46.80688477 146.66235352 C-47.34249023 145.59202881 -47.8780957 144.5217041 -48.42993164 143.41894531 C-48.91091309 142.46109131 -49.39189453 141.5032373 -49.88745117 140.51635742 C-50.92211914 138.20410156 -50.92211914 138.20410156 -50.92211914 136.20410156 C-51.72319092 135.96473877 -52.5242627 135.72537598 -53.34960938 135.47875977 C-57.77019299 133.90151197 -61.8828253 131.89570098 -66.08227539 129.80957031 C-66.94976913 129.38033768 -67.81726288 128.95110504 -68.71104431 128.50886536 C-70.53842426 127.60240572 -72.36470391 126.69372494 -74.18994141 125.78295898 C-76.97401023 124.39688331 -79.76519387 123.02591868 -82.55688477 121.65527344 C-84.33664019 120.77012712 -86.11595236 119.8840889 -87.89477539 118.99707031 C-88.72509781 118.59167526 -89.55542023 118.18628021 -90.41090393 117.76860046 C-98.09037331 113.89898833 -104.1194652 108.6120634 -106.92211914 100.20410156 C-107.68243785 93.29891194 -107.00734805 86.97871085 -102.92211914 81.20410156 C-96.77640766 74.92707146 -89.16001902 71.53975135 -81.35961914 67.76660156 C-80.06423002 67.13148596 -78.76930484 66.49542321 -77.47485352 65.85839844 C-76.83624893 65.54583603 -76.19764435 65.23327362 -75.53968811 64.91123962 C-74.24417352 64.27269694 -72.9523675 63.62657751 -71.66429138 62.97315979 C-68.54017067 61.40297699 -65.58858484 60.09301232 -62.25634766 58.9831543 C-51.0016485 54.83253447 -47.71385886 46.95879742 -42.85766602 36.53027344 C-41.89738263 34.4018878 -40.93972261 32.2723167 -39.98461914 30.14160156 C-38.52461221 26.96212209 -37.05225273 23.78941855 -35.56114197 20.62440491 C-34.64150814 18.66487143 -33.74085272 16.69627674 -32.86280823 14.71775818 C-29.47418519 7.38179596 -25.58941023 3.2414855 -18.54711914 -0.67089844 C-12.34889571 -2.59448502 -5.99999112 -2.76959023 0 0 Z M-10.92211914 70.20410156 C-11.39520508 71.21730469 -11.86829102 72.23050781 -12.35571289 73.27441406 C-16.29403747 81.36885075 -19.48867635 87.1970514 -27.92211914 91.20410156 C-28.54989258 91.53667969 -29.17766602 91.86925781 -29.82446289 92.21191406 C-31.17063056 92.9150887 -32.54314972 93.56765414 -33.92211914 94.20410156 C-33.92211914 94.86410156 -33.92211914 95.52410156 -33.92211914 96.20410156 C-33.04168945 96.63980469 -32.16125977 97.07550781 -31.25415039 97.52441406 C-20.01049037 103.28975361 -15.83934599 108.44460587 -10.92211914 120.20410156 C-8.80410874 117.50455652 -7.12003199 114.81214086 -5.54711914 111.76660156 C-0.8262095 103.29388397 5.47507852 100.19678973 14.07788086 96.20410156 C14.07788086 95.54410156 14.07788086 94.88410156 14.07788086 94.20410156 C13.06467773 93.74261719 12.05147461 93.28113281 11.00756836 92.80566406 C2.37804506 88.67579006 -3.00476151 85.31423558 -6.92211914 76.20410156 C-7.54201517 74.99314188 -8.16609539 73.78430008 -8.79711914 72.57910156 C-9.16836914 71.79535156 -9.53961914 71.01160156 -9.92211914 70.20410156 C-10.25211914 70.20410156 -10.58211914 70.20410156 -10.92211914 70.20410156 Z " fill="#000000" transform="translate(244.922119140625,288.7958984375)"/>
<path d="M0 0 C7.66140743 8.37720088 12.33172662 20.82305518 17.21899414 30.99121094 C18.30009964 33.23853659 19.3909116 35.48097571 20.48266602 37.72314453 C21.17594113 39.15646427 21.86867128 40.59004777 22.56079102 42.02392578 C23.04811707 43.02531586 23.04811707 43.02531586 23.54528809 44.04693604 C25.77954102 48.71515251 25.77954102 48.71515251 25.77954102 50.94580078 C26.58061279 51.18443848 27.38168457 51.42307617 28.20703125 51.66894531 C32.63353092 53.25102645 36.74039052 55.27352458 40.93969727 57.37548828 C41.80719101 57.80709259 42.67468475 58.2386969 43.56846619 58.68338013 C45.39578154 59.59417557 47.22206225 60.5070494 49.04736328 61.421875 C51.83273159 62.81614078 54.62326315 64.19965642 57.41430664 65.58251953 C59.19392767 66.4711936 60.97323531 67.3604956 62.75219727 68.25048828 C63.58251968 68.66104462 64.4128421 69.07160095 65.26832581 69.49459839 C73.6780397 73.73298706 78.58347036 77.89244145 81.77954102 86.94580078 C83.050772 93.5155225 81.51647972 98.60130264 78.65454102 104.52392578 C73.70581381 110.91603176 66.24880036 114.48481653 59.09985352 117.90673828 C58.2058786 118.34216949 57.31190369 118.77760071 56.39083862 119.22622681 C54.51877678 120.13596432 52.64473137 121.0416305 50.76879883 121.94335938 C47.88738858 123.3290495 45.01279375 124.72815905 42.13891602 126.12939453 C40.31377582 127.01429463 38.488268 127.89843696 36.66235352 128.78173828 C35.80094757 129.20039154 34.93954163 129.6190448 34.05203247 130.05038452 C33.25715424 130.43143341 32.462276 130.8124823 31.64331055 131.20507812 C30.94352081 131.54227875 30.24373108 131.87947937 29.5227356 132.22689819 C27.77954102 132.94580078 27.77954102 132.94580078 25.77954102 132.94580078 C25.60961136 133.49678436 25.4396817 134.04776794 25.26460266 134.615448 C23.50135921 140.13846633 21.34995471 145.27227201 18.76000977 150.45361328 C18.37895584 151.22333466 17.99790192 151.99305603 17.6053009 152.78610229 C16.80406593 154.39929508 15.99972169 156.01094705 15.19238281 157.62109375 C13.96938806 160.06610857 12.76374179 162.5191741 11.55883789 164.97314453 C10.77277001 166.5504869 9.98569406 168.12732739 9.19750977 169.70361328 C8.84416061 170.42670685 8.49081146 171.14980042 8.12675476 171.89480591 C4.12918284 179.78373865 -0.20646617 185.34988174 -8.70874023 188.28564453 C-14.94036767 189.92350617 -20.16132903 189.27843281 -25.9309082 186.35888672 C-33.39253334 181.75365252 -37.06900488 173.9300199 -40.53295898 166.19580078 C-41.85504202 163.31012032 -43.18737972 160.4342452 -44.56738281 157.57568359 C-45.84299898 154.77464073 -46.93257907 152.03411165 -47.98876953 149.15185547 C-53.28591655 135.71414978 -60.09828731 130.30501951 -73.10913086 124.40283203 C-75.20730198 123.49714901 -77.3069282 122.59482993 -79.40795898 121.69580078 C-82.55885508 120.29051128 -85.70013572 118.8673997 -88.83381653 117.4241333 C-90.76790937 116.53924275 -92.71308529 115.67801996 -94.67045593 114.84588623 C-101.91662215 111.62058409 -106.85692801 107.35293726 -110.63452148 100.30908203 C-112.37662278 93.28260679 -112.04908613 86.19535776 -108.68139648 79.76220703 C-103.98672321 73.92524695 -98.06004148 71.25878173 -91.36108398 68.31298828 C-89.41956515 67.41630545 -87.47950455 66.51645974 -85.54077148 65.61376953 C-82.5201369 64.21373712 -79.49696086 62.83233282 -76.4440918 61.50390625 C-61.82334827 55.1034602 -54.09254669 49.25821254 -48.15386963 34.26281738 C-46.76200699 30.80777983 -45.09118475 27.50632518 -43.42749023 24.17626953 C-41.28738453 19.75491596 -41.28738453 19.75491596 -39.18066406 15.31762695 C-35.00097849 6.44249523 -31.27411841 0.13355697 -22.22045898 -4.05419922 C-15.19697644 -6.10985265 -5.70297976 -4.85193787 0 0 Z M-15.22045898 67.94580078 C-15.73995117 68.91001953 -16.25944336 69.87423828 -16.79467773 70.86767578 C-17.49854693 72.14402526 -18.20300538 73.42004992 -18.90795898 74.69580078 C-19.24762695 75.33001953 -19.58729492 75.96423828 -19.93725586 76.61767578 C-23.39866918 82.82880997 -27.77265499 85.87708541 -34.03295898 89.19580078 C-35.0087793 89.71658203 -35.98459961 90.23736328 -36.98999023 90.77392578 C-37.72604492 91.16064453 -38.46209961 91.54736328 -39.22045898 91.94580078 C-36.34641182 94.19447657 -33.39655389 96.02940579 -30.22045898 97.82080078 C-22.42191786 102.50676628 -19.36418254 109.05891361 -15.22045898 116.94580078 C-12.83323814 113.98091426 -11.27066847 111.0080383 -9.65795898 107.57080078 C-6.37406756 101.42885922 -2.3899707 98.88081121 3.77954102 95.94580078 C4.43180664 95.60806641 5.08407227 95.27033203 5.75610352 94.92236328 C7.08367012 94.23655873 8.42913743 93.58546564 9.77954102 92.94580078 C7.34356506 90.1676476 4.7738653 88.85454099 1.46704102 87.25830078 C-6.87602721 82.80059283 -10.34105051 76.3014498 -14.22045898 67.94580078 C-14.55045898 67.94580078 -14.88045898 67.94580078 -15.22045898 67.94580078 Z " fill="#000000" transform="translate(388.220458984375,153.05419921875)"/>
</svg>
